<?xml version="1.0" encoding="utf-8"?>
<!-- Generator: Adobe Illustrator 28.5.0, SVG Export Plug-In . SVG Version: 9.03 Build 54727)  -->
<svg version="1.1" id="Layer_1" xmlns="http://www.w3.org/2000/svg" xmlns:xlink="http://www.w3.org/1999/xlink" x="0px" y="0px"
	 viewBox="0 0 24 24" style="enable-background:new 0 0 24 24;" xml:space="preserve">
<path d="M17.93,5.48H6.07c-1.57,0-2.85,1.28-2.85,2.85v7.34c0,1.57,1.28,2.85,2.85,2.85h11.85c1.57,0,2.85-1.28,2.85-2.85V8.33
	C20.77,6.76,19.5,5.48,17.93,5.48z M17.29,12c0-1.25,0.84-2.29,1.98-2.62v5.23C18.13,14.29,17.29,13.25,17.29,12z M11.25,13.24
	c-0.42-0.26-0.71-0.72-0.71-1.24c0-0.53,0.29-0.99,0.71-1.24V13.24z M12.75,10.76c0.42,0.26,0.71,0.72,0.71,1.24
	c0,0.53-0.29,0.99-0.71,1.24V10.76z M6.71,12c0,1.24-0.84,2.29-1.98,2.62V9.38C5.87,9.71,6.71,10.75,6.71,12z M4.82,16.15
	c1.93-0.39,3.39-2.1,3.39-4.15c0-2.04-1.46-3.75-3.39-4.15C5.02,7.35,5.5,6.98,6.07,6.98h5.18v2.17C9.98,9.48,9.04,10.63,9.04,12
	c0,1.37,0.94,2.52,2.21,2.85v2.16H6.07C5.5,17.02,5.02,16.65,4.82,16.15z M17.93,17.02h-5.18v-2.16c1.27-0.33,2.21-1.48,2.21-2.85
	c0-1.37-0.94-2.52-2.21-2.85V6.98h5.18c0.57,0,1.06,0.36,1.25,0.87c-1.93,0.39-3.39,2.1-3.39,4.15c0,2.04,1.46,3.75,3.39,4.15
	C18.98,16.65,18.5,17.02,17.93,17.02z"/>
</svg>
